<svg id="Layer_1" data-name="Layer 1" xmlns="http://www.w3.org/2000/svg" viewBox="0 0 220.42 218.74"><defs><style>.cls-1{fill:#03a550;}.cls-2{fill:#231f20;}.cls-3{fill:#fff;}</style></defs><title>clock</title><ellipse class="cls-1" cx="110.22" cy="109.41" rx="110.77" ry="106.96" transform="translate(-45.08 109.98) rotate(-45)"/><path class="cls-2" d="M184.54,185.15C151.28,218,99.82,227.78,58,205.54,19.61,185.15-1.67,142.24,3.61,99.38c5.61-45.5,40.22-84.8,85-95.4,43.85-10.39,90.79,8.67,114.11,47.41,25.86,43,16.53,98.65-18.14,133.77-0.59.59,2.12,0.28,2.62-.23,32.62-33,43.37-84.16,22.69-126.46C189.62,17.09,144-5.36,98.82,1.09,53.32,7.6,14.48,41.82,3.25,86.56-8.06,131.61,10.73,180.3,51,204.16c38,22.53,87.41,18.19,122.68-7.7a121.44,121.44,0,0,0,13.45-11.53C187.75,184.34,185,184.65,184.54,185.15Z"/><ellipse class="cls-3" cx="110.22" cy="108.06" rx="97.74" ry="94.37" transform="translate(-43.88 116.86) rotate(-47.7)"/><path class="cls-2" d="M178.69,171.62C151.24,201.35,107.5,212.33,70,195.68c-35.77-15.9-57.16-53.82-54-92.57C19.4,63,48.07,27.46,86.79,16.23c37.78-11,79.49,3.48,101.78,36,25.2,36.81,19.39,86.7-9.88,119.34-0.71.79,2.12,0.51,2.66-.09,27.83-31,35-77.67,13.72-114.31C174.88,22.4,134,5.28,94.83,13.06,55.14,20.94,22.61,52.8,14.73,92.64c-8,40.28,10.8,82.3,47.4,101.6,39.74,21,89.28,9.72,119.21-22.71C182.06,170.76,179.24,171,178.69,171.62Z"/><path class="cls-2" d="M103.24,118.33Q106,79.59,109.93,41c0.19-1.83-5.59-.7-5.75.9q-4,38.63-6.69,77.37c-0.13,1.87,5.64.68,5.75-.9h0Z"/><path class="cls-2" d="M103.18,119.57l25.64-26.21c2.54-2.6-3-3.65-4.86-1.76L98.32,117.81c-2.54,2.6,3,3.65,4.86,1.76h0Z"/></svg>