<svg id="Layer_1" data-name="Layer 1" xmlns="http://www.w3.org/2000/svg" xmlns:xlink="http://www.w3.org/1999/xlink" viewBox="0 0 1258.02 938.77"><defs><style>.cls-1{fill:none;}.cls-2{fill:#0071bc;}.cls-3{clip-path:url(#clip-path);}.cls-4{fill:#39b54a;}.cls-5{fill:#fff;}</style><clipPath id="clip-path"><path class="cls-1" d="M569.69,294S515.42-4.48,250.09,89,48.08,532.2,271.2,676.93,557.48,934.32,557.48,934.32,679.31,786.71,930.09,642.81s282.78-475.47,52.66-557.66C687.28-20.38,569.69,294,569.69,294Z"/></clipPath></defs><title>earth_heart</title><path class="cls-2" d="M569.69,294S515.42-4.48,250.09,89,48.08,532.2,271.2,676.93,557.48,934.32,557.48,934.32,679.31,786.71,930.09,642.81s282.78-475.47,52.66-557.66C687.28-20.38,569.69,294,569.69,294Z"/><path d="M571.75,292.93c-3.25-17.84-9-35.45-15.22-52.43-13.45-36.51-32.13-71.58-57.67-101.1C468,103.67,426.77,78.48,379.78,71.13c-28.71-4.49-58.06-2.53-86.4,3.47-33.27,7.05-66,19.06-95.45,36.19-49.41,28.77-87.74,73.06-107.44,126.88C71,291,70,349.76,81.36,405c12.4,60.47,39.21,117.87,75.84,167.43a443.33,443.33,0,0,0,65.34,70.92C252.82,669.7,287.47,690,320.24,713c61.72,43.32,121,91,173.17,145.65,21.81,22.84,43.36,47,60.17,73.9,0.68,1.09,1.37,2.19,2,3.32,0.75,1.34,2.55.42,3.25-.42,16.82-20.36,35.91-39.07,54.93-57.32,51.91-49.82,108-95.27,166.54-137.11q61.41-43.91,126.44-82.43C925.4,647.5,944.38,637,962.28,624.7a442.1,442.1,0,0,0,43.79-34.33c50.43-45,90.54-101.87,113.54-165.57,20.18-55.89,27.22-117.75,13.71-176-12.79-55.16-44.67-104.33-91.54-136.5-27.79-19.08-59.4-31.32-91.88-39.81C917.11,63.89,883,59.69,849.17,61.83,794,65.31,741.82,86.1,697.93,119.42c-36.44,27.66-66.82,62.83-91.62,101.13C592,242.66,579.15,266,569.15,290.42c-0.49,1.19-1,2.38-1.43,3.59-1.15,3.06,3.09,2.27,3.94,0,6.39-17,15.14-33.6,24.21-49.5,20.71-36.3,46.16-70.26,76.66-98.93,38.36-36.06,84.95-63.06,136.72-74.06,30.07-6.39,61.11-7.29,91.61-3.7,35.22,4.15,70.84,13.67,103.05,28.6,52.43,24.3,93.78,67.08,114.92,121,21.37,54.46,21.6,115.53,7.65,171.84-15.87,64.06-49.71,123-94.63,171.06a434.45,434.45,0,0,1-84.4,69.87c-20.26,12.88-41.42,24.36-61.91,36.88q-31.71,19.39-62.6,40.06C758,750.6,695.69,798.33,637.78,850.9c-27.4,24.88-54.29,50.73-78.57,78.7-1,1.19-2.06,2.38-3.07,3.59l3.25-.42c-10-17.84-23.78-34.06-37-49.52-40.34-47.15-87-88.84-135.72-127.15-37.3-29.35-76.23-56.35-115.88-82.41a426.14,426.14,0,0,1-73.51-61.34,441.17,441.17,0,0,1-97.51-158.1c-19.12-54.42-27.14-113.78-17.4-171,9.41-55.24,36.65-106.2,79.49-142.66,23.88-20.33,51.61-35.81,80.89-46.88,30.82-11.66,63.52-19.61,96.55-20.57,50-1.45,97.67,15.19,135.09,48.42,30.5,27.08,52.89,62.32,69.23,99.42a366.79,366.79,0,0,1,23.28,70.48c0.26,1.19.51,2.39,0.73,3.59C568.12,297.83,572.15,295.09,571.75,292.93Z"/><g class="cls-3"><path class="cls-4" d="M145.88,270.18c-4.76-27.76,17.23-39.61,43.63-49.42s56.27-4.87,82.3,5.87c15.16,6.25,29.69,14.43,45.68,18.08s34.46,1.87,46.17-9.62c9-8.78,16.22-23.69,28.58-21.6,5.1,0.86,9.12,4.68,12.75,8.36,19.75,20,38.51,41.93,48.59,68.16s10.25,57.66-5.61,80.87c-11.6-9.51-30.07-5.35-40.68,5.26s-15.12,25.73-18.51,40.34a453.64,453.64,0,0,0-8.11,45.09c-1.45,11.34-.94,25.67,9.4,30.56l-42.75,43.26c-2,2-4.15,4.32-4.42,7.18-0.29,3.11,1.71,5.93,3.75,8.29,14.08,16.28,36.14,28.76,38.53,50.15,0.82,7.32-.29,16.26,5.71,20.53,4,2.84,9.42,2.69,14.24,1.87,97.18-16.54,65.89,27.94,85.74,58.23,8.5,13,16.26,26.67,20.18,41.67,6.86,26.26,1.32,54.35-8.69,79.57s-24.34,48.48-36,73c-6.64,14-12.85,28.92-24.89,38.62-12.81,10.32-30.37,12.94-46.74,11.35-36.06-3.5-67.57-24.86-97.31-45.55-4.48-3.12-9.09-6.37-12-11-3.34-5.37-3.95-11.94-4.48-18.24l-3.4-40.52c-2.14-25.56-4.29-51.25-2.41-76.83,3.16-43,17.67-86,10.42-128.53a128.71,128.71,0,0,0-33.3-66.52c-7.77-8.19-16.65-15.36-23.63-24.23-8.46-10.74-13.85-23.59-21.84-34.69-17.09-23.76-44.41-37.6-70.66-50.55-8.55-4.22-17.36-8.51-26.86-9.24s-20.84,1.62-27.42-5.35c-3.15-3.33-4.4-8.21-7.9-11.17-3.19-2.7-7.59-3.27-11.72-3.94-18.64-3-37.38-10.62-49.29-25.28s-15.05-37.34-3.73-52.45c13.78-18.4,40.48-18.7,63.23-22a168.68,168.68,0,0,0,73.42-29.54"/><path d="M147.94,269.09c-2.1-13.43,2.56-24.53,13.51-32.53s25.47-13.93,38.76-16.85c17.17-3.78,35.17-2,52,2.7,16.64,4.61,31.69,12.86,47.67,19.18,13.85,5.49,28.73,8.91,43.58,5.84,13.51-2.8,21.67-11,30.19-21.19,4.06-4.85,9.1-11,16.08-10.72,7.9,0.33,13.95,8.43,19,13.67,11.57,12.08,22.52,24.86,31.34,39.12,18.69,30.21,27.14,70.57,6.23,102l3.33-1.34c-11-8.45-26-6.46-37.14.77C399.67,378,393.18,392.91,389.2,407a365,365,0,0,0-10.61,55.07c-1.37,11.42-1.3,26.06,10.29,32.15L388.73,491l-34.47,34.89c-4.14,4.19-10,8.51-12.5,14s0.66,9.92,4.21,13.92c7.79,8.79,17.23,15.93,25.1,24.65a52.78,52.78,0,0,1,9.42,13.89c2.55,5.8,2.67,11.64,3.18,17.83,0.36,4.44,1.17,9.33,4.64,12.48,4.09,3.72,10,3.83,15.18,3.13,12.53-1.7,24.89-3.85,37.59-3.72,12,0.12,26.58,1.94,33.36,13.27,5,8.4,5.3,18.87,7.19,28.24,3.5,17.31,15.23,30.21,22.2,46.15,26.49,60.54-17.63,120.16-42.61,172.85-6,12.73-12.81,26-25.27,33.6-12,7.29-26.74,8.77-40.5,7.45-29.68-2.84-56.36-18.2-80.66-34.45-11.39-7.61-27.51-15.2-30.56-29.75-1.44-6.86-1.57-14.08-2.16-21L280,813.29c-2.77-33-5.14-65.84-.72-98.87,4.08-30.5,11.54-60.86,10.29-91.83-1.1-27.31-10.11-53.79-26.82-75.53-8.62-11.22-19.66-20-29-30.49-9.88-11.1-15.59-24.9-24-37-14.95-21.56-38-35.14-60.87-46.81-12.17-6.2-25-13.91-38.83-15.05-6.16-.51-12.5.47-18.58-0.85-7.77-1.69-9.34-7.44-13.69-13-3.61-4.63-8.79-5.58-14.29-6.51a108.69,108.69,0,0,1-19.91-5.17c-12.64-4.73-24.79-12.61-32.05-24.25-6.78-10.87-9.54-25.12-5-37.37,4.65-12.59,16.44-19.38,28.78-22.76,11.63-3.19,23.73-4,35.63-5.69a172.37,172.37,0,0,0,40.4-10.81,174.84,174.84,0,0,0,35.47-19.48c2.27-1.6.95-5.08-1.73-3.19C120,286.25,91.94,295.26,61.79,299c-21.6,2.66-47.88,6.32-58.05,28.63C-6.7,350.48,6,376.24,25.94,388.92c11.17,7.11,23.73,10.72,36.67,12.94,3.36,0.58,7.07,1.16,9.75,3.46s3.95,5.78,5.91,8.65c3,4.35,7.25,6.63,12.39,7.47,6.23,1,12.56.11,18.81,0.8,7.88,0.86,15.2,4.09,22.27,7.5,13,6.27,26,12.73,38.2,20.4,11.38,7.15,22.22,15.5,30.87,25.86,9.53,11.4,15.21,25.25,23.88,37.23,8.54,11.81,20.35,20.62,29.84,31.58a127.64,127.64,0,0,1,22.09,36.66c11.79,29.91,9.64,61.85,4.88,93C279,690.64,276,706.75,274.14,723a314.57,314.57,0,0,0-1.43,48.2c0.67,16.71,2.21,33.37,3.61,50l2,24.12c0.58,7,.66,14.35,3.09,21,2.31,6.31,7,10.59,12.36,14.42C299.64,885,305.6,889,311.58,893c11.92,8,24.16,15.55,37.12,21.73,24.21,11.55,54.38,19.44,80.39,9s34.62-39.32,46.44-62.23c14.11-27.35,30.05-54.37,37-84.66,3.26-14.12,4.64-28.76,2.78-43.18-1.91-14.79-7.62-28.57-15-41.42-4.36-7.59-9.89-14.5-12.57-22.93a110,110,0,0,1-3.35-15.59c-1.53-9.31-3-19.42-9.95-26.45-9.93-10.1-26.85-10.19-39.93-9.54-6.23.31-12.43,1-18.6,1.83-6.65.91-14.76,3.69-21.29,1.13-6.83-2.68-6.72-10.69-7.09-16.84a41.31,41.31,0,0,0-3.8-15.85c-4.94-10.26-13.81-18.13-22-25.73A168.37,168.37,0,0,1,349.17,550a19.73,19.73,0,0,1-3.36-4.53c-1.53-3.38,0-6,2.35-8.41,2.86-3,5.85-5.93,8.78-8.89l34.47-34.89c0.92-.93,1.11-2.61-0.15-3.27-11.14-5.85-9.54-21.38-8.13-31.81a415.24,415.24,0,0,1,8.76-46.4c3.27-12.93,7.86-27,18.35-36,9.89-8.43,25.33-11.33,36.13-3,1.23,0.94,2.68-.37,3.33-1.34,18.34-27.54,15.57-63.43,1.8-92.26-7.58-15.88-18.22-30.09-29.83-43.23a241.57,241.57,0,0,0-17.88-18.76c-4.94-4.5-11-7.43-17.68-5.42-13.21,4-18.34,20-29.8,26.71-15.47,9.08-34.69,6-50.66.13-17.82-6.58-34.3-16.07-52.78-20.95-17.26-4.56-35.61-6.1-53.13-2.05-14.71,3.4-31.21,10.16-42.85,20-10.86,9.17-15.27,21.69-13.08,35.67,0.43,2.73,4.47,0,4.13-2.17h0Z"/><path class="cls-4" d="M720.32,282.28c-16.51,13.25-17.88,37.35-19.06,58.48s-5.89,45.76-24.92,55c-15,7.3-33.3,2-49.1,7.23-30.29,10.1-41.73,55-73.53,57.89a91,91,0,0,0,44.13,66.74c5.34,3.08,11.36,5.67,17.49,5,6.7-.78,12.26-5.3,17.62-9.4a213.63,213.63,0,0,1,94.27-40.85c22.71-3.78,48.43-5,63.91-22.05,4.39-4.84,8.09-11,14.34-13,9.59-3,19.49,7.33,18.85,17.35s-8.78,18.19-17.89,22.4-19.28,5.36-29.08,7.53c-24.49,5.41-47,17.23-69.18,28.93L653,552.69c-13.58,7.16-29.16,17.64-28.31,33,0.41,7.36,4.72,13.82,8.24,20.28a107.89,107.89,0,0,1,12.43,63c26.11-8.78,57.6,3,71.47,26.84,5.43,9.31,8.43,20.16,15.64,28.18,14.42,16,39.23,15,60.11,20.37,4.82,1.24,9.74,3,13.18,6.6,3,3.12,4.55,7.29,6.25,11.26,17.23,40.19,53.78,68.21,88.83,94.36,5.45,4.07,11.1,8.23,17.7,9.9,10,2.52,20.64-1.15,29.41-6.6A76.81,76.81,0,0,0,983,805.6c5.1-38.05-18.51-73.18-38.3-106.08-3.52-5.85-7.07-12.31-6.24-19.08,1-8.34,8.22-14.31,12.75-21.37,14-21.84,1.57-50.15-8.22-74.19-2.14-5.26-4.18-11-2.94-16.51,3.54-15.79,30.5-20.49,28.83-36.58a173.7,173.7,0,0,1-59.1-46.16c41.4-29.85,102.14-29.43,143.13,1,17,12.64,31,29.87,50.31,38.6a95.78,95.78,0,0,0,13.82-86c-1.59-4.76-3.58-9.61-3.1-14.6,1.17-12.15,15.19-17.87,26.78-21.72a324.48,324.48,0,0,0,72.44-34.51c6.39-4.08,12.84-8.6,16.7-15.13,4.4-7.44,4.85-16.5,5-25.14a709,709,0,0,0-3.79-89.5c-0.47-4.46-1-9.1.53-13.32,3.76-10.6,18-14,22.95-24.1,7-14.35-10.29-30-26.25-30.54s-31,7.37-46.94,8.82c-25.08,2.29-48.48-11.35-72.71-18.2-22.14-6.26-45.43-6.87-68.43-7.44l-83.49-2.07c-17.24-.43-34.86-0.8-51.3,4.39-27.55,8.7-47.79,31.51-69.09,51s-48.49,37.46-77,32.69c-6.47-1.08-13.81-3.13-19.05.82-2.9,2.18-4.36,5.73-5.69,9.11l-12,30.32"/><path d="M719.46,280.69c-30.87,25.76-10.29,71.82-31.18,102.38-13.78,20.15-38.33,11.74-58.45,17.12-14.92,4-25.62,15.85-35.12,27.32-10.75,13-22.12,29.26-40.28,31.21a3.11,3.11,0,0,0-2.78,3.31,93.14,93.14,0,0,0,25.65,52.79,81.57,81.57,0,0,0,23.86,17.37c9.36,4.28,18,3,26.33-2.66,10-6.79,19.33-14.27,29.91-20.27a210.63,210.63,0,0,1,31.86-14.75A213,213,0,0,1,722,485.43c10.27-2,20.69-3,31-5,9.45-1.81,19-4.38,27.36-9.25a51,51,0,0,0,9.87-7.39c3.67-3.55,6.41-8,10.26-11.37,10.05-8.75,23.2,2.75,21.63,14.29-1.75,12.78-15.27,19.17-26.31,22-12,3.06-24.08,4.77-35.83,8.82a274.48,274.48,0,0,0-32.53,14C704,523.17,681,535.81,657.8,548c-16,8.42-40.39,21.6-34.36,43.68,1.63,6,5.09,11.17,8,16.56a104.24,104.24,0,0,1,8.14,19.89,108.35,108.35,0,0,1,3.7,41.32,1.44,1.44,0,0,0,1.9,1.59c22.78-7.34,49.12.47,64.52,18.78,8.66,10.29,11.4,24,19.83,34.42,7.2,8.88,17.82,13.29,28.69,15.85,11.91,2.8,24.39,3.44,36.08,7.17,6.57,2.1,10.92,5.66,13.89,12s5.57,12.63,9.07,18.66c13.18,22.77,32.41,41.35,52.62,57.87,10.45,8.54,21.19,16.8,32.14,24.7,11.38,8.21,23,11.34,36.48,6.19,22-8.39,38.84-29.73,44.76-52.16,6.93-26.25-1.32-52.81-13.25-76.26-6.53-12.83-14.14-25.07-21.59-37.38-3.5-5.79-8-12.25-7.94-19.32,0.1-7.61,6.24-13.2,10.43-18.92,18.44-25.22,3-55.53-6.6-80.91-2.84-7.5-3.75-14.63,1.92-20.87,3.46-3.81,7.88-6.66,12-9.73C965,546,971.59,539.92,971,530.69a1.37,1.37,0,0,0-.87-1.06,175.69,175.69,0,0,1-58.68-45.93l-0.74,3.51C933.32,471.12,961.45,464.1,989,466c28.35,2,53.13,13.72,74.3,32.32,12.16,10.69,23.85,22,38.7,29,0.82,0.38,2.07-.38,2.53-1,18.18-24.87,24.28-57.94,14.79-87.44-2.64-8.21-5.95-16.72,1.2-23.66,5.22-5.08,12.6-7.67,19.36-10a346.27,346.27,0,0,0,49.89-21.16c8.09-4.25,16-8.83,23.71-13.77,6.27-4,12.52-8.36,16.82-14.58,9.15-13.22,6.88-32.5,6.78-47.68q-0.19-29-2.73-57.94c-0.75-8.55-4.39-20.76,1.11-28.25,3.9-5.32,10.26-8.35,15-12.77,8.94-8.28,10.11-19.93,2-29.32-9.78-11.35-24.17-12.7-38-9.92-8.73,1.75-17.17,4.76-25.92,6.43a70.82,70.82,0,0,1-28.37-.64c-17.63-3.81-33.91-12-51.26-16.79-17.57-4.84-35.86-6.23-54-6.87-19.9-.71-39.82-1-59.73-1.53-19.35-.48-38.82-1.61-58.17-1.08-16.83.46-33.1,3.57-48,11.74-29,16-48.5,44.1-76,62.17-14.66,9.64-31.9,16.74-49.76,14.79-6.73-.74-14.22-3.58-20.83-0.77s-8.84,9.87-11.28,16l-10.57,26.75c-1.2,3,3.06,2.24,3.94,0l10.22-25.86c1.75-4.43,3.27-10.92,8.15-12.86,4.3-1.71,9.32-.41,13.69.36,14.78,2.59,29.21-.18,42.73-6.46,28.95-13.46,48.6-39.19,73.15-58.61,12.87-10.18,27.15-18.06,43.43-21,18.35-3.32,37.44-1.76,56-1.3l57.65,1.43c17.92,0.44,35.93.56,53.75,2.82,18.14,2.3,34.74,8.19,51.81,14.39,15.41,5.6,31.59,10.55,48.17,8.37,15.92-2.09,32.89-11.54,49.15-7.88,12.46,2.8,29,17.56,18,30.66-7.78,9.25-20.9,12.72-21.9,26.59-0.58,8,1.24,16.48,1.91,24.47q1.18,14.08,1.8,28.2c0.8,18.33,2.05,37.59-.11,55.86a31.81,31.81,0,0,1-13.15,22.91c-7.07,5.35-15,9.8-22.7,14.12a321.2,321.2,0,0,1-48.52,22.06c-11.3,4-25.29,7.2-32.56,17.7-3.55,5.12-4.14,11.07-2.61,17,2,7.63,4.82,14.77,6,22.63a94.67,94.67,0,0,1-5,46.54,90.23,90.23,0,0,1-11.78,21.82l2.53-1c-14.28-6.65-25.58-17.66-37.26-28-10.85-9.57-22.36-17.88-35.69-23.64A128.88,128.88,0,0,0,950.55,465a121.74,121.74,0,0,0-41.61,19,2.5,2.5,0,0,0-.74,3.51A173.92,173.92,0,0,0,958,528.91c2.2,1.23,8.09,3,8.87,5.38,0.59,1.8-1.28,4.8-2.27,6.17-5.42,7.52-14.89,11.29-21.09,18.15-8.35,9.23-5.82,19.48-1.49,30.08,5.56,13.63,11.51,27.58,13.07,42.36,0.83,7.86.17,16.06-3.26,23.27-2.86,6-7.7,10.66-11.3,16.21-8.29,12.78-1.68,24,5.35,35.64,7.91,13,15.94,26,22.55,39.81,13,27,19.25,58,4,85.48-7,12.58-17.82,23.66-31,29.76-7.85,3.64-16.72,5.2-25,2-7.12-2.72-13.16-8-19.2-12.48-22.91-17.18-46-35.1-63.82-57.73a162.2,162.2,0,0,1-20.85-35.42c-2.71-6.13-6.2-10.63-12.45-13.34-5.83-2.53-12.36-3.55-18.58-4.63-12.42-2.16-25.64-3.45-37-9.44-13.46-7.12-17.71-20.51-24.36-33.17-11.05-21.06-34.43-34-58.1-33.22a60.67,60.67,0,0,0-16.65,2.94l1.9,1.59c2.38-23.49-2.8-46.41-14.28-67-3-5.45-6.46-11.24-6.43-17.69,0-5.52,2.55-10.39,6.13-14.46,7.32-8.31,17.76-13.2,27.38-18.27,22.86-12.06,45.55-24.54,68.72-36a243.54,243.54,0,0,1,35.84-14.87c11.45-3.55,23.47-4.7,34.87-8.31,15-4.75,35.13-21.64,23.61-39-4.26-6.42-12-10.11-19.44-6.88-8.85,3.87-13.28,14-21.11,19.45-17.08,11.85-39.76,11.92-59.48,15.62a215.74,215.74,0,0,0-63.54,22.73c-11.1,6.07-21.17,13.33-31.34,20.79-6.4,4.7-12.85,7.47-20.84,4.92-6.11-1.94-11.74-5.64-16.82-9.48a90.37,90.37,0,0,1-34.89-60.09L553,463.15c33.26-3.56,42.47-43.61,70.34-56.48,19-8.77,41.92.71,59.47-12.73C696.58,383.4,701,364.8,702.7,348.43c2.27-21.79-.16-49,18.49-64.56,2.11-1.76.8-5.3-1.73-3.19h0Z"/><path class="cls-5" d="M165.11,102.44a554.54,554.54,0,0,0,.59,55.49c0.43,7.07,1.29,14.79,6.36,19.73,4.77,4.65,12,5.54,18.62,5.87,50,2.52,100.34-12.39,149.8-4.62,18.45,2.9,36.47,8.93,55.14,9.6,46.26,1.66,90.91-34.56,98.84-80.16,3.15-18.14-.56-39.74-16.26-49.35-6.35-3.88-13.86-5.3-21.19-6.52a666,666,0,0,0-198-3c-38.17,5.15-81,17.51-97.45,52.36"/><path d="M163,103q-0.92,24.54.23,49.09c0.58,12,.7,26.74,14,31.6,6.35,2.32,13.64,2.21,20.29,2.32,7.93,0.14,15.85-.12,23.77-0.59,16.2-1,32.33-2.89,48.49-4.4s32.17-2.62,48.29-2c16.59,0.68,32.48,4.19,48.66,7.63,13.65,2.91,27.54,5.13,41.51,3.48a98.83,98.83,0,0,0,32.53-9.84c20.69-10.35,38.2-27.7,48.11-48.66,9.08-19.21,13.58-45.24,1.33-64.18-7.17-11.09-18.76-14.88-31.21-17q-23.71-4-47.7-6.26a666.94,666.94,0,0,0-99.27-2c-28.37,1.56-57.51,3.9-85,11.3-21.67,5.82-43.65,15.61-58.15,33.36a72.36,72.36,0,0,0-9.06,14.3c-1.43,2.95,2.23,3.66,3.44,1.15,21.66-44.78,82.58-50.36,126-54.15a666.59,666.59,0,0,1,90.53-1.72q22.87,1.12,45.63,3.81c14.44,1.71,30,2.71,43.81,7.32,24.49,8.15,27.37,37.4,21.39,59-6.19,22.34-21.36,41.69-40.71,54.24-20,13-43.07,17.66-66.56,14.2-14.81-2.18-29.22-6.49-44-8.64a228.7,228.7,0,0,0-43.41-1.64c-33,1.52-65.72,7.59-98.81,6.76-7.32-.18-16.24.08-22.28-4.77s-6.59-12.88-7-19.91a535.46,535.46,0,0,1-.57-55c0.12-3.07-4.08-1.14-4.17,1.12h0Z"/><path class="cls-5" d="M656.12,136.11c14.66,12.7,29.53,25.54,46.93,34.12s37.91,12.53,56.37,6.6c29.12-9.36,46.93-40.53,75.87-50.43,34.69-11.87,78.1,9.25,107.26-13,21.08-16.08,23-47.5,16.39-73.17-2.43-9.42-6-18.95-12.83-25.83C932.6,0.9,910.92,1.44,891.88,2.9s-38.39,3-56.59,8.91c-25.87,8.45-48,25.34-69.57,41.93L662.57,133.07c-5.37,4.13-13.76,8-18.06,2.79"/><path d="M654.51,138c20.62,17.86,42.56,36.64,70.06,42.22,12.42,2.52,25.4,2.24,37.36-2.21,10.22-3.8,19.18-10.18,27.53-17.07,18.8-15.52,35.52-33.06,61.09-35.7,23.42-2.42,47.15,4.1,70.43-.45,21.4-4.18,36.62-19.9,41.43-41a90.3,90.3,0,0,0,1-32.18c-1.56-11.53-4.6-24.17-11.33-33.85C938-2.54,910.73-.74,888.89,1c-14.32,1.12-28.72,2.4-42.73,5.71a143.36,143.36,0,0,0-37.22,14.84c-28.09,15.8-53,37.49-78.48,57.07L688.27,111,668,126.66c-5.19,4-15.32,13.92-21.84,7.27-1.61-1.64-4.88,2.13-3.21,3.83,7.61,7.76,18.95-1.89,25.22-6.71l35.95-27.64c23.14-17.79,46.2-35.69,69.43-53.37,22-16.73,45-32.62,72.29-39.06,13.68-3.23,27.71-4.48,41.69-5.57,11.91-.93,24.2-2,36,0.4,12.36,2.5,22.36,9.22,28.09,20.64,5.16,10.28,7.59,22.38,8.42,33.8,1.64,22.57-5.22,47.4-27.72,57-21.2,9.06-46,3-68.22,3-10.8,0-21.71,1.14-31.8,5.18s-18.69,10.37-26.88,17.19c-9.26,7.71-18,16.15-27.92,23-12.21,8.36-25.94,12.67-40.81,11.66-31.33-2.13-56.25-23.44-78.92-43.07-1.77-1.53-5,2.29-3.21,3.83h0Z"/></g><path d="M573.82,291.84c-3.28-18-9.07-35.76-15.37-52.89-13.51-36.68-32.31-71.81-58-101.47C469.48,101.64,428.08,76.4,381,69c-29.06-4.58-58.72-2.61-87.41,3.47-33.45,7.09-66.41,19.18-96,36.4C147.4,138.07,108.52,183,88.52,237.67,68.88,291.33,67.9,350.51,79.29,406.09c12.43,60.62,39.28,118.21,76,167.89a445.5,445.5,0,0,0,65.64,71.28c30.28,26.35,64.93,46.66,97.7,69.65,61.72,43.32,121,91,173.17,145.65,21.7,22.73,43.15,46.79,59.87,73.53,0.68,1.09,1.37,2.19,2,3.32,1.5,2.67,5.09.85,6.49-.85,16.67-20.19,35.59-38.75,54.45-56.85,51.91-49.82,108-95.27,166.54-137.11q61.16-43.73,125.92-82.09c18.85-11.19,38-21.79,56.06-34.22A442.1,442.1,0,0,0,1006.93,592c50.93-45.43,91.41-102.83,114.64-167.16,20.3-56.21,27.4-118.5,13.8-177.12-12.86-55.46-44.87-105-92-137.33-27.93-19.17-59.66-31.51-92.3-40-32.93-8.61-67.17-12.85-101.2-10.7-55.76,3.52-108.46,24.54-152.82,58.21-36.8,27.94-67.43,63.47-92.47,102.15a431.69,431.69,0,0,0-37.41,70.44c-0.49,1.19-1,2.38-1.43,3.59-0.77,2,.23,4.3,2.52,4.45,2.49,0.16,4.59-2.37,5.36-4.43,0.47-1.26,1-2.51,1.5-3.76,1.8-4.37,2.08-5,4.06-9.35,5.56-12.22,11.75-24.16,18.4-35.82,20.48-35.9,45.64-69.55,75.81-97.91,38.09-35.81,84.25-62.58,135.66-73.51,29.9-6.35,60.77-7.2,91.08-3.62,35.06,4.13,70.51,13.67,102.57,28.52,52.16,24.17,93.18,66.79,114.21,120.38,21.16,53.92,21.4,114.54,7.59,170.29-15.78,63.67-49.35,122.13-94,169.94a429.58,429.58,0,0,1-83.41,69.06c-20.26,12.88-41.42,24.36-61.91,36.88q-32,19.55-63.12,40.41c-65,43.49-127.26,91.21-185.17,143.78-27.56,25-54.62,51-79,79.17-1,1.19-2.06,2.38-3.07,3.59l6.49-.85c-10.09-18-24-34.31-37.31-49.89-40.34-47.15-87-88.84-135.72-127.15C351,724.83,312,697.83,272.38,671.78a426.14,426.14,0,0,1-73.51-61.34A440.08,440.08,0,0,1,101.65,452.7c-19-54.1-26.9-113.14-17.22-170,9.27-54.37,36.11-104.62,78.28-140.51,23.57-20.06,50.94-35.4,79.84-46.33,30.66-11.6,63.17-19.54,96-20.5,49.65-1.45,97,15.09,134.2,48.11,30.39,27,52.65,62.09,68.94,99.05a364.31,364.31,0,0,1,23.12,70c0.26,1.19.51,2.39,0.73,3.59C566.56,301.65,574.61,296.16,573.82,291.84Z"/></svg>