<svg id="Layer_1" data-name="Layer 1" xmlns="http://www.w3.org/2000/svg" viewBox="0 0 164.88 327.31"><defs><style>.cls-1{fill:#046938;}.cls-2{fill:#231f20;}.cls-3{fill:#fee346;}</style></defs><title>flower</title><path class="cls-1" d="M85.66,210.83c-1.61-16-2.7-33.11,4.84-47.34a7.11,7.11,0,0,1,3.23-3.55l3.25,18c1.33,7.36,2.66,15,.91,22.25-1.18,4.91-3.71,9.38-6.25,13.74"/><path class="cls-2" d="M86.91,210.83c-0.8-8.08-1.49-16.22-1-24.34a63.61,63.61,0,0,1,1.95-12.71c1.09-4.09,2.58-10.44,6.51-12.76l-1.84-.75c1.61,8.92,3.71,17.92,4.65,26.95,1,9.89-1.72,17.62-6.61,26.07a1.25,1.25,0,0,0,2.16,1.26c4.72-8.15,7.81-15.89,7.12-25.47-0.71-9.88-3.15-19.74-4.91-29.48a1.26,1.26,0,0,0-1.84-.75c-6.34,3.74-8.22,15.07-9.12,21.67-1.38,10.06-.56,20.24.44,30.3,0.16,1.59,2.66,1.6,2.5,0h0Z"/><path class="cls-1" d="M26.77,172.17c0.22-2.92-1.32-5.68-3-8.08a51.89,51.89,0,0,0-11.51-11.79c-3.23-2.39-7-4.47-11-4.29q4.21,6.78,9,13.2a42.55,42.55,0,0,0,6.57,7.45,16.65,16.65,0,0,0,8.92,4.09"/><path class="cls-2" d="M28,172.17c-0.13-6.51-5.38-12.21-9.83-16.48-4.67-4.49-10.22-8.77-16.93-8.93a1.26,1.26,0,0,0-1.08,1.88C6.09,158.08,13.26,172,25.37,174c1.57,0.26,2.25-2.15.66-2.41C14.7,169.7,7.9,156.27,2.33,147.38l-1.08,1.88c6,0.14,11,4.22,15.17,8.2,4,3.8,9,8.93,9.1,14.71a1.25,1.25,0,0,0,2.5,0h0Z"/><path class="cls-1" d="M24.35,162.65c-4.8-16-9.46-32.29-9.62-49A83.18,83.18,0,0,1,29,150.15c0.42,3.11.61,6.47-1,9.17"/><path class="cls-2" d="M25.55,162.31c-4.76-15.9-9.25-32-9.57-48.66l-2.33.63A84.63,84.63,0,0,1,24,134.61c2.31,6.72,6.09,17.27,2.89,24.08-0.68,1.45,1.47,2.72,2.16,1.26,3.21-6.85.45-15.88-1.59-22.73A86.65,86.65,0,0,0,15.81,113a1.26,1.26,0,0,0-2.33.63c0.33,16.93,4.84,33.21,9.66,49.33a1.25,1.25,0,0,0,2.41-.66h0Z"/><path class="cls-1" d="M135.91,196.19l23.14-11.93c1.6-.83,4.26-1.2,4.59.57a2.85,2.85,0,0,1-.91,2.2,34.16,34.16,0,0,1-26.84,12.06"/><path class="cls-2" d="M136.55,197.27l13.22-6.82c2.2-1.14,4.4-2.29,6.61-3.41,1.89-1,6.34-3.56,3.95.8-1.76,3.21-7,5.74-10.27,7.18a33.9,33.9,0,0,1-14.16,2.82,1.25,1.25,0,0,0,0,2.5A36.39,36.39,0,0,0,154,195.81c3.16-1.77,11.19-6.52,10.84-10.82-0.28-3.46-4.22-2.73-6.45-1.82-7.92,3.25-15.52,8-23.14,11.93-1.43.74-.17,2.9,1.26,2.16h0Z"/><path class="cls-1" d="M139.39,188.08c-0.31-5.71,4.29-10.37,8.53-14.21l10-9a2.76,2.76,0,0,1,1.53-.87c1.91-.15,1.83,2.89.94,4.59a159.08,159.08,0,0,1-17.93,26.93"/><path class="cls-2" d="M140.64,188.08c0.13-5.73,4.21-9.68,8.16-13.33,1.89-1.74,3.8-3.45,5.7-5.17,1.55-1.41,5.93-6.23,4.48-1.21-1.25,4.33-5,9-7.48,12.7a164.56,164.56,0,0,1-9.95,13.51c-1,1.24.75,3,1.77,1.77a166.85,166.85,0,0,0,14.62-20.89c1.3-2.21,7-9.68,3-12.32-1.14-.77-2.19-0.33-3.26.23-3.38,1.77-6.46,5.77-9.26,8.33-5,4.52-10.16,9.21-10.32,16.39a1.25,1.25,0,0,0,2.5,0h0Z"/><path class="cls-2" d="M60.33,321c-6.54-34.86-4.18-70.06-1.94-105.21C60.55,181.73,64.25,147.58,75,115c2-6.13-7.64-8.75-9.64-2.66-11,33.42-14.72,68.58-16.94,103.52C46.09,252,44,287.9,50.69,323.71c1.19,6.32,10.82,3.64,9.64-2.66h0Z"/><path class="cls-2" d="M56.11,250.38c10.61-24.48,39.33-30.51,61.2-40.86,10.29-4.87,21.37-11.34,25.87-22.4,3.83-9.4,1.29-20.43-7.21-26.22-5.33-3.63-10.34,5-5,8.63,9.24,6.3,1.38,18.62-4.94,23.47-9,6.93-20.32,10.83-30.74,15.07-18.89,7.68-39.18,17.42-47.77,37.25-2.53,5.84,6.08,10.94,8.63,5h0Z"/><path class="cls-2" d="M56.75,195.71c-7.15-5.1-15-10.64-19-18.76-4.35-8.93-2.12-19.24,2.4-27.62,3.05-5.67-5.58-10.72-8.63-5C25.75,155,23.2,167.8,28,179.41c4.53,11,14.34,18.25,23.72,24.94,5.25,3.74,10.25-4.93,5-8.63h0Z"/><path class="cls-1" d="M58,322c-6.59-34.88-4.35-70-2.14-105.2,2.17-34.62,5.85-69.35,16.73-102.46,1-3.06-3.82-4.38-4.82-1.33-11,33.51-14.71,68.74-16.91,103.79-2.24,35.66-4.36,71.18,2.32,106.52,0.6,3.16,5.42,1.82,4.82-1.33h0Z"/><path class="cls-1" d="M53.95,249.11c10.83-25,39.78-31.2,62.1-41.75,9.62-4.55,20.41-10.55,24.72-20.9,3.45-8.27,1.52-18.23-6.06-23.4-2.67-1.82-5.17,2.51-2.52,4.32,11,7.48,3,21.78-4.94,27.79-9.28,7-20.68,11-31.34,15.32-18.33,7.46-37.95,16.88-46.28,36.1-1.27,2.92,3,5.47,4.32,2.52h0Z"/><path class="cls-1" d="M55.49,197.87C48,192.49,39.85,186.71,35.61,178.2c-4.84-9.71-2.54-21,2.4-30.15,1.53-2.83-2.79-5.36-4.32-2.52-5.46,10.15-7.9,22.25-3.3,33.21C34.72,189.05,44.15,195.9,53,202.18c2.62,1.87,5.12-2.46,2.52-4.32h0Z"/><path class="cls-3" d="M67.34,113.48c-6.23.89-12.43-2.07-17.36-6-9.8-7.76-16.1-19.31-19.37-31.37S26.52,33,26.52,33s24.85,23.2,31.4,30.26c6.21,6.7,11.9,14.14,14.82,22.79s2.74,18.72-2.22,26.38"/><path class="cls-2" d="M67.48,112.46C55.7,113.55,45.79,103.28,40,94.13a65.66,65.66,0,0,1-9.32-25.42A294.15,294.15,0,0,1,28,32.86l-2.79.75c8.54,8,17.06,16,25.4,24.19,14,13.73,30.64,34.33,18.55,54.48-0.81,1.35,2.13,1.33,2.76.29,11.72-19.53-2.84-40.27-16.6-54C46.35,49.65,37.1,41,27.85,32.36c-0.65-.61-2.83-0.47-2.79.75,0.36,13.4.75,27.25,3.41,40.41,3.51,17.42,17.81,42.92,38.73,41,1.59-.15,2.26-2.22.28-2h0Z"/><path class="cls-3" d="M64,108.45C54.3,105,53.73,99.53,52.34,93.14S52,80.16,53.7,74C60.19,50.84,83.16,23.6,94.12.78c1.74,13.91,8.39,58.19,5.95,78.65s-11.38,26.13-15.89,29.06-16.31,3.86-20.2,0"/><path class="cls-2" d="M65.14,107.81c-9.46-3.7-12.18-12.47-12-22.08C53.35,74.94,58,64.45,63,55.08,72.95,36.38,86.26,19.63,95.56.57l-2.89.6c2.71,21.48,6,43,6.45,64.68,0.21,11.43-.48,24.11-7,33.92a27.9,27.9,0,0,1-7.78,7.72c-4.87,3.26-14.18,4.52-19,.43-0.69-.59-3.35.52-2.71,1.07,5.46,4.64,16.16,3.31,22,.05A30.4,30.4,0,0,0,97.22,95.36c4.44-9.38,5-20.07,4.8-30.28-0.21-11.31-1.3-22.62-2.56-33.86C98.31,20.93,96.86,10.67,95.56.4c-0.12-1-2.63.08-2.89,0.6C82.7,21.43,68.07,39.2,58,59.6c-7.12,14.47-15.21,41.68,4.77,49.49,0.76,0.3,3.4-.87,2.34-1.28h0Z"/><path class="cls-3" d="M72.83,113.76C74.38,95.25,87,79.1,102.59,68.93s33.78-15.25,51.79-19.79C146,57.53,140.07,68,134.17,78.31s-12,20.69-20.71,28.78-28.84,8-40.62,6.67"/><path class="cls-2" d="M74.28,113.37c4-40.23,46.8-55.33,80.21-63.78l-1.43-.34c-13.22,13.57-20.15,31.4-31.1,46.61-6.19,8.59-12.54,15.1-23.3,17a88.61,88.61,0,0,1-24.89.31c-0.63-.07-3.31,1-1.88,1.18,14.1,1.55,33.14,2.14,44.1-8.54C132.74,89.49,139.39,65.75,155.69,49c0.66-.67-1.23-0.39-1.43-0.34C120,57.36,75.51,72.79,71.38,114.14c0,0.37,2.81.1,2.9-.78h0Z"/><path class="cls-1" d="M63,119.31c-5.77-4.75-11.31-8.13-18.59-9.78a80,80,0,0,1,21.19,1.1,36.87,36.87,0,0,0-8-13,18.47,18.47,0,0,1,12.46,7,20.73,20.73,0,0,1,14.69-6.08A107,107,0,0,0,74,112.61c6.69-1.56,15.07-.65,20.48,2.46-5.8,1-10.71.74-16.23,2.3-1.84.52-6,2.11-5.67,4"/><path class="cls-2" d="M63.92,118.42c-5.79-4.68-11.87-8.3-19.14-10.1l-0.33,2.46a85.81,85.81,0,0,1,20.85,1.05,1.26,1.26,0,0,0,1.54-1.54A42.27,42.27,0,0,0,58.56,96.7l-1.22,2.09a18.58,18.58,0,0,1,11.91,6.65,1.27,1.27,0,0,0,1.77,0,20.41,20.41,0,0,1,13.81-5.72l-0.88-2.13a120.54,120.54,0,0,0-11,14.4,1.26,1.26,0,0,0,1.41,1.84,29.36,29.36,0,0,1,19.52,2.33l0.3-2.28c-4.84.73-21.74,0-22.77,7.17-0.23,1.57,2.18,2.25,2.41.66,0.75-5.25,17.07-4.83,21-5.42a1.26,1.26,0,0,0,.3-2.28,32.12,32.12,0,0,0-21.45-2.58l1.41,1.84A116.39,116.39,0,0,1,85.71,99.35a1.27,1.27,0,0,0-.88-2.13,23.11,23.11,0,0,0-15.57,6.45H71a20.54,20.54,0,0,0-13-7.29,1.26,1.26,0,0,0-1.22,2.09A38.57,38.57,0,0,1,64.43,111L66,109.42a88.64,88.64,0,0,0-21.52-1.14,1.26,1.26,0,0,0-.33,2.46c6.87,1.71,12.57,5,18,9.46,1.24,1,3-.76,1.77-1.77h0Z"/></svg>