<svg id="Layer_1" data-name="Layer 1" xmlns="http://www.w3.org/2000/svg" xmlns:xlink="http://www.w3.org/1999/xlink" viewBox="0 0 585.74 450.13"><defs><style>.cls-1{fill:#00703a;}.cls-2{fill:url(#linear-gradient);}.cls-3{fill:url(#linear-gradient-2);}.cls-4,.cls-6{fill:#76d15a;}.cls-4{stroke:#fff;stroke-miterlimit:10;stroke-width:14px;}.cls-5{fill:#009245;}.cls-7{fill:url(#linear-gradient-3);}</style><linearGradient id="linear-gradient" x1="136.2" y1="951.2" x2="136.2" y2="713.2" gradientTransform="translate(0 -518)" gradientUnits="userSpaceOnUse"><stop offset="0" stop-color="#009245"/><stop offset="0.29" stop-color="#76d15a"/></linearGradient><linearGradient id="linear-gradient-2" x1="357.35" y1="703.46" x2="412.7" y2="584.76" gradientTransform="translate(0 -518)" gradientUnits="userSpaceOnUse"><stop offset="0" stop-color="#009245"/><stop offset="0.16" stop-color="#76d15a"/></linearGradient><linearGradient id="linear-gradient-3" x1="192.45" y1="1034.17" x2="424.01" y2="758.2" gradientTransform="translate(0 -518)" gradientUnits="userSpaceOnUse"><stop offset="0" stop-color="#009245"/><stop offset="0.38" stop-color="#76d15a"/></linearGradient></defs><title>logo_01</title><path class="cls-1" d="M259.9,75a122.51,122.51,0,0,1,15.5-12,83.68,83.68,0,0,1,14.7-7.7,52.66,52.66,0,0,1,11.2-3.6,48.18,48.18,0,0,0,4.7-1.1c-27.1,2.3-59.7,10.1-78.4,30.3-4.7,5.1-9.1,10.9-10.6,17.7-0.9,4.2,2.5,11.3,4.6,15,4.2-4.7,6.8-8.8,11.9-12.6s7.9-7.3,10.7-9.9c0.2-.2.3-0.4,0.5-0.6A171.93,171.93,0,0,1,259.9,75Z" transform="translate(-87.96 -50.6)"/><path class="cls-1" d="M277.5,66a122.3,122.3,0,0,0-14.2,12.5c-2.6,2.7-5.3,5.5-7.8,8.5h0.2c-4.1,5-11.5,17.8-13.7,24a43.63,43.63,0,0,0-2,14.4,36.62,36.62,0,0,0,13.1,2c10.3-.4,20.6-6.2,25.1-15.7,5.7-12,6-20.6,7.6-33.8,1.1-9.3,10.2-18.8,17.7-25.4-3.3.9-8.2,3.2-12.4,5.2A82.89,82.89,0,0,0,277.5,66Z" transform="translate(-87.96 -50.6)"/><path class="cls-1" d="M441.4,154.3c-13.4-12.1-34.8-18.2-63.6-18.2H297l-61.3,227h56.9l20.2-74.9h17.6c29.9,0,56.3-7,78.3-20.9,23.5-14.8,38.7-34.2,45-57.7C460.1,186.4,455.8,167.2,441.4,154.3Zm-46.2,56.4c-2.3,8.7-6.9,14.6-14.6,19.3-9.3,5.5-22.4,8.4-38.9,8.4H326.3l14.2-52.5h19C401.9,185.9,397.2,203.3,395.2,210.7Z" transform="translate(-87.96 -50.6)"/><path class="cls-2" d="M167.6,212.7c-11.6,13.1-20.7,27-29.8,41.2A469.92,469.92,0,0,0,113,298.6c-7.4,15.6-14.1,32.1-18.7,50a177.48,177.48,0,0,0-5.1,26.3c-1.1,9.3-1,22.9,3.1,34.4l62.3,23.9C123,416,141.7,344.6,145.2,330c0.6-2.5,38.6-134.8,38.6-134.8C177.6,201.5,173.5,206,167.6,212.7Z" transform="translate(-87.96 -50.6)"/><path class="cls-3" d="M503,121.3A54.31,54.31,0,0,0,487.1,103c-7.1-5.3-15.9-9.4-25.5-12.3-19.4-5.6-42.2-7-66.6-5.1a289.64,289.64,0,0,0-37.8,5.5c-6.5,1.4-13,3-19.7,5-3.3,1-6.6,2.1-10,3.5-3.2,1.3-6.4,2.6-9.7,4a410.7,410.7,0,0,0-39,19c-6.5,3.6-12.9,7.5-19.2,11.5,5.3,2.1,9.5,4.7,11.3,8.8,0.4,0.9.9,1.9,1.4,2.9,4.8-3.6,9.6-7,14.5-10.3a355,355,0,0,1,35.9-21.3c1.6-.8,3.1-1.5,4.6-2.3l2.3-1.1,1.2-.6a9.25,9.25,0,0,0,1-.5c2.9-1.3,6-2.5,9-3.6,6.1-2.2,12.4-4.1,18.5-5.7a260.3,260.3,0,0,1,36.4-6.8c23.6-2.7,45.7-2.2,64.2,2.8a75.57,75.57,0,0,1,24,10.8c6.6,4.7,11.5,7.9,14.7,13.8,1.1,2.1,2.3,4.4,3.5,6.9h3.8A60.59,60.59,0,0,0,503,121.3Z" transform="translate(-87.96 -50.6)"/><polygon class="cls-1" points="454.54 312.5 397.54 312.5 445.34 135.3 375.64 135.3 389.04 85.5 585.74 85.5 572.24 135.3 502.34 135.3 454.54 312.5"/><path class="cls-4" d="M204.4,150.6" transform="translate(-87.96 -50.6)"/><path class="cls-1" d="M204.2,151.3L146.6,363h58.5l57.2-210.1c4.5-16.5-35.4-16.8-32.5-27.2,2.1-7.5,7.6-16.5,11.7-21.8-13.7,11.6-29.9,28.8-36.5,44.6Z" transform="translate(-87.96 -50.6)"/><path class="cls-5" d="M473.1,426.9c-4.9,2.5-8.7,4.3-10.8,5.4-4.5-5.6-23.9-27-32-38.6C442.3,380,450.9,375,473.1,426.9Z" transform="translate(-87.96 -50.6)"/><path class="cls-5" d="M316.9,367s21.6,1,34.7,1c2,0,7.7-6.1,9.7-11.1-16.9-1.3-28.2-1.2-45.1-.8A88.54,88.54,0,0,0,316.9,367Z" transform="translate(-87.96 -50.6)"/><path class="cls-6" d="M95.4,413.4c8.3,11,27.5,35.9,38.2,44.5,8.3,6.7,12.8,9.7,20.6,16.9,3.9,3.6,15.8,9.4,19.1,13.5,16,6.4,33,6.5,41.3,7.3,24.5,2.3,42.5,1.1,69.6-6.3,13.6-3.7,26.2-7.6,39.5-13.6,6.6-3,108.2-71.1,122.8-107l-76.4-26.2c-26.9,57-139.1,88.6-196.5,82-25.1-2.9-48.6-11-64-17.3l-1.2-.7c-23.5-11.8-19.7-27.3-17.6-43.8-2.5,11.9-3.5,22.6-2.4,32.9,0.3,2.7,3.2,14.8,5.9,15.7Z" transform="translate(-87.96 -50.6)"/><path class="cls-7" d="M91.5,408.8c2.4,6.2,8.2,17.7,12.5,23.5,8.3,11,16.1,32.8,64.8,54.8,38.3,17.3,95.2,15.8,122.3,8.3,12.6-3.4,118-31.4,151.8-102.5l30,33.1-21-162.4L316.2,356.1l59.4,1.1c-30.4,54-144.2,82.6-200.2,77.5A215.25,215.25,0,0,1,107.5,417h0c-6.8-4.1-14.9-6.6-19.1-20.9A45.46,45.46,0,0,0,91.5,408.8Z" transform="translate(-87.96 -50.6)"/></svg>