<svg id="Layer_1" data-name="Layer 1" xmlns="http://www.w3.org/2000/svg" viewBox="0 0 194.05 380.96"><defs><style>.cls-1{fill:#29b574;}.cls-2{fill:#231f20;}.cls-3{fill:#fee346;}.cls-4{fill:#652f8f;}</style></defs><title>spray_bottle</title><path class="cls-1" d="M94,117.41l36.26,0.07c-4.37,51.38,9.21,102.6,25.58,152.23Q172,318.85,192,367c2.48,6-2.87,12.22-10.39,12.16q-60.84-.51-121.68.77c-7.66.16-13.6-5.59-12.33-12L72.18,240.55c0.62-3.13,1.29-6.36,3.38-9,3.11-3.93,8.74-5.8,12.87-9,8.78-6.77,9.49-18,9.57-28.08,0.23-27.71,5.29-50.51-4-77.08"/><path class="cls-2" d="M93.43,118.37l36.26,0.07-0.94-.83c-5,61.72,14.61,122.27,34.89,179.71q7.68,21.76,16.08,43.27,3.86,9.88,7.86,19.7c1.28,3.13,3.74,7,3.52,10.46-0.43,6.85-7.71,7.46-13,7.45-31.38,0-62.75-.11-94.13.37-7.31.11-14.63,0.33-21.94,0.39-6.93.06-13.92-3.2-13-11.18,0.25-2.19.85-4.4,1.27-6.56l6.84-35.41,15.46-80.08c0.7-3.62,1.14-7.94,2.65-11.25,2.94-6.44,10.57-8.05,15.5-12.5,4.37-3.94,6.71-9.37,7.76-15.07,1.21-6.57.86-13.34,1.09-20,0.29-8.24.91-16.46,1.22-24.7,0.58-15.4-.45-30.51-5.45-45.2-0.41-1.2-3.3-.4-2.9.78,4.94,14.53,6,29.45,5.42,44.69-0.28,7.33-.8,14.64-1.11,22-0.28,6.63,0,13.35-.79,19.95-0.89,7.28-3.5,14.08-9.7,18.43-4.28,3-9.57,4.78-12.61,9.29-2.33,3.46-2.85,7.76-3.63,11.79L54.41,325.16,47.31,362c-0.4,2-.93,4.12-1.19,6.19a10.48,10.48,0,0,0,4.64,10.31c4.73,3.24,10.55,2.45,16,2.34q50.68-1,101.36-.71c7.78,0,25,2.53,25.94-9.6,0.2-2.64-1.11-5-2.08-7.39q-2.38-5.8-4.72-11.62-4.48-11.18-8.77-22.43c-11.42-30-22.1-60.34-31-91.17-9.1-31.46-16-63.9-16.57-96.76-0.12-7.94.16-15.86,0.8-23.77a0.86,0.86,0,0,0-.94-0.83l-36.26-.07c-1.28,0-3,1.93-1,1.93h0Z"/><path class="cls-3" d="M46.19,38.92a59.82,59.82,0,0,1,6.27,44.9c-6.52,25.64-18.91,32.6-18.91,32.6s28-3.67,35.21-34.58-2.12-37.47-2.12-37.47Z"/><path class="cls-2" d="M44.74,39.31c8,12.21,9.77,29,6.71,43C49,93.5,43.08,110.17,32.7,116.15c-1.07.62-.29,1,0.61,0.89,13.5-1.85,26.08-11.39,32.38-23.23,5.91-11.11,8.55-26.26,6.9-38.8-0.43-3.27-1.39-9.1-4.58-11.14-2.42-1.55-6.72-1.84-9.46-2.57l-11.18-3c-0.73-.19-3.3,1-2.36,1.21,6.27,1.67,12.61,3.18,18.83,5,2.64,0.78,3.77,3.06,4.74,6.09C71.9,61,69.66,73.37,67,83.53,64.2,94,58.25,103.31,49.22,109.4c-4.51,3-10,5.65-15.43,6.4l0.61,0.89c10.47-6,16.06-20.5,19-31.34,4.13-15.1,3-33.38-5.79-46.81C47.13,37.75,44.43,38.83,44.74,39.31Z"/><path class="cls-4" d="M129.63,94.74c2-5.09,2.25-9,10.14-12.7s18.4,0,18.4,0L148,20.2,22.27,6.2,15.51,34.06,43.88,40.2l40.3,18.09,11,34Z"/><path class="cls-2" d="M131.07,94.54c2.13-5.61,3.81-9.75,9.93-12.11,5-1.94,10.93-1.44,16,.28,0.63,0.21,2.78,0,2.61-1.06L149.48,19.81a0.66,0.66,0,0,0-.55-0.36L38.89,7.2,23.17,5.45c-0.66-.07-2.14.11-2.34,0.95L14.07,34.25a0.52,0.52,0,0,0,.55.56l23.19,5c5.17,1.12,8.75,2.77,13.93,5.09L77.86,56.65c1.3,0.58,2.66,1.11,3.93,1.76,0.56,0.29,1.27.77,1,.4,1.54,2,2.06,6.34,2.81,8.68l8.16,25.18a0.88,0.88,0,0,0,.87.39L129,95.52c1.05,0.08,3.09-1.42,1.15-1.56l-16.72-1.19-11.57-.83c-1.48-.11-4.8.33-6.1-0.44,1.61,0.95-.36-3.3-0.66-4.24l-3.55-11L88,65.08c-0.63-1.94-1-5.21-2.23-6.88-1.6-2.22-6.56-3.36-9-4.46L54.83,43.92c-3.4-1.53-6.85-3.48-10.43-4.55C38,37.44,31.06,36.48,24.49,35.05c-1.52-.33-7-0.56-8-1.74,0.89,1,.72-0.61,1-1.43,0.51-1.61.81-3.32,1.2-5L23.72,6,21.38,7,100,15.7l41.63,4.63c1.49,0.17,3,.23,4.5.5s0.3-.45.54,0.24c1.71,4.95,1.82,11.12,2.67,16.27l7.39,45.08,2.61-1.06c-5.8-2-12.67-2.55-18.52-.51-7.33,2.56-10.05,7.27-12.63,14.08C127.85,95.81,130.72,95.47,131.07,94.54Z"/><path class="cls-3" d="M91.59,115.61c1.59,6.1,39.56,6.75,40.93,1.79s4.33-25.77-1.36-28.25-34.73-4.82-38.3-1.35S90,109.51,91.59,115.61Z"/><path class="cls-2" d="M90.14,116c1.08,2.93,6.23,3.6,8.77,4.07a87.26,87.26,0,0,0,16.5,1.25c4.69,0,9.69-.17,14.22-1.53,3.14-.94,4.22-1.87,4.86-5.07,1.46-7.29,5.21-24.42-4.59-26.9a92.94,92.94,0,0,0-17.19-2.16c-5.5-.32-11.4-0.67-16.85.46-4.55,1-5.84,3.29-6.54,7.89a59.51,59.51,0,0,0,.8,22c0.16,0.67,3.07-.06,2.9-0.78A60.68,60.68,0,0,1,91.74,101c0-3.59-.54-11.78,3.38-13.63s10.52-.69,14.59-0.49a118.94,118.94,0,0,1,15.14,1.59c3.72,0.67,6.42,1.24,7.52,5.25,1.22,4.47.78,9.52,0.34,14.06-0.24,2.47-.17,8.88-2.32,10.67-2.46,2.05-8.61,1.55-11.6,1.64a87,87,0,0,1-16.64-1c-2.52-.42-8-1-9.11-3.84C92.77,114.5,89.91,115.38,90.14,116Z"/><rect class="cls-3" x="-3.95" y="9.9" width="38.04" height="22.6" transform="translate(-7.86 33.48) rotate(-82.74)"/><path class="cls-2" d="M24.43,40.61L2,37.75l0.91,0.74L7.73,0.75l-2,1.06L28.15,4.66l-0.91-.74L22.43,41.66c-0.16,1.26,2.77.77,2.91-.32L30.15,3.61a0.8,0.8,0,0,0-.91-0.74L6.81,0c-0.59-.08-1.9.31-2,1.06L0,38.8a0.8,0.8,0,0,0,.91.74L23.34,42.4C24.56,42.55,26.37,40.85,24.43,40.61Z"/></svg>